<?xml version="1.0" encoding="UTF-8" standalone="no"?>
<!DOCTYPE svg PUBLIC "-//W3C//DTD SVG 1.1//EN" "http://www.w3.org/Graphics/SVG/1.1/DTD/svg11.dtd">
<svg width="100%" height="100%" viewBox="0 0 2000 850" version="1.1" xmlns="http://www.w3.org/2000/svg" xmlns:xlink="http://www.w3.org/1999/xlink" xml:space="preserve" xmlns:serif="http://www.serif.com/" style="fill-rule:evenodd;clip-rule:evenodd;stroke-linejoin:round;stroke-miterlimit:2;">
    <g id="Artboard1" transform="matrix(2.88675,0,0,1.0625,-2000,-637.5)">
        <rect x="692.82" y="600" width="692.82" height="800" style="fill:none;"/>
        <g transform="matrix(0.3464,0,0,0.943502,467.584,56.4983)">
            <g id="bg" transform="matrix(1,0,0,0.997506,-0.179682,2.49377)">
                <path d="M692.82,800L1039.23,600L1385.64,800.008L1385.64,1200L1039.23,1400L692.827,1200L692.82,800Z" style="fill:rgb(140,43,229);"/>
            </g>
            <g transform="matrix(0.866051,-0.498768,1.00003,0.575927,-0.210168,2.4645)">
                <rect x="-400" y="1039.23" width="400" height="346.41" style="fill:rgb(140,43,229);"/>
            </g>
            <g transform="matrix(0.866051,-0.498768,5.55128e-17,1.15185,-0.210168,2.4645)">
                <rect x="1200" y="1385.64" width="400" height="346.41" style="fill:rgb(179,43,229);"/>
            </g>
            <g transform="matrix(0.866051,0.498768,-5.55128e-17,1.15185,-0.210168,2.4645)">
                <rect x="800" y="346.41" width="400" height="346.41" style="fill:rgb(124,16,187);"/>
            </g>
        </g>
        <g transform="matrix(1.5,2.35294,1.65608e-17,4.70588,731.512,924.699)">
            <path d="M0,5.68L0.003,0L22.561,0.045L22.636,22.621L0,22.618L0.033,8.46L16.996,8.493L16.954,5.632L0,5.68ZM16.987,16.968L16.99,14.074L5.667,14.11L5.685,16.959L16.987,16.968Z" style="fill:white;"/>
            <path d="M25.367,31.059L25.367,25.379L47.925,25.424L48,48L25.364,47.997L25.4,33.839L42.357,33.872L42.315,31.011L25.367,31.059ZM42.348,42.347L42.354,39.453L31.033,39.492L31.051,42.338L42.348,42.347Z" style="fill:white;"/>
            <path d="M31.058,0.008L31.096,16.964L48,16.963L47.989,22.614L25.373,22.621L25.364,0L31.058,0.008Z" style="fill:white;fill-rule:nonzero;"/>
            <path d="M22.636,25.379L22.598,47.966L17.011,48L16.918,30.972L14.212,30.972L14.14,48L8.472,48L8.5,30.972L5.741,30.972L5.703,48L0.022,48L0,25.393L22.636,25.379Z" style="fill:white;fill-rule:nonzero;"/>
        </g>
        <g transform="matrix(0.237927,-0.373219,1.32076e-17,0.746438,435.809,250.733)">
            <g transform="matrix(186.362,0,0,186.362,1689.35,2136.98)">
                <path d="M0.567,-0.286C0.544,-0.183 0.476,-0.135 0.391,-0.135C0.285,-0.135 0.2,-0.221 0.2,-0.335C0.2,-0.449 0.285,-0.534 0.391,-0.534C0.477,-0.534 0.545,-0.487 0.566,-0.387L0.728,-0.428C0.696,-0.587 0.556,-0.685 0.391,-0.685C0.192,-0.685 0.035,-0.531 0.035,-0.335C0.035,-0.138 0.192,0.015 0.391,0.015C0.563,0.015 0.698,-0.083 0.729,-0.251L0.567,-0.286Z" style="fill:rgb(235,235,235);fill-rule:nonzero;"/>
            </g>
            <g transform="matrix(186.362,0,0,186.362,1831.73,2136.98)">
                <path d="M0.058,-0.67L0.058,-0L0.323,-0C0.544,-0 0.69,-0.136 0.69,-0.335C0.69,-0.534 0.544,-0.67 0.323,-0.67L0.058,-0.67ZM0.223,-0.143L0.223,-0.527L0.317,-0.527C0.442,-0.527 0.524,-0.451 0.524,-0.335C0.524,-0.219 0.442,-0.143 0.317,-0.143L0.223,-0.143Z" style="fill:rgb(235,235,235);fill-rule:nonzero;"/>
            </g>
            <g transform="matrix(186.362,0,0,186.362,1966.84,2136.98)">
                <path d="M0.717,-0L0.448,-0.383L0.689,-0.67L0.502,-0.67L0.223,-0.339L0.223,-0.67L0.058,-0.67L0.058,-0L0.223,-0L0.223,-0.115L0.341,-0.256L0.517,-0L0.717,-0Z" style="fill:rgb(235,235,235);fill-rule:nonzero;"/>
            </g>
        </g>
        <g transform="matrix(0.4,0,0,0.941176,618.457,634.916)">
            <g transform="matrix(192,0,0,192,906.958,452.221)">
                <path d="M0.392,-0.685C0.192,-0.685 0.035,-0.53 0.035,-0.334C0.035,-0.139 0.192,0.015 0.392,0.015C0.592,0.015 0.749,-0.139 0.749,-0.334C0.749,-0.53 0.592,-0.685 0.392,-0.685ZM0.392,-0.136C0.283,-0.136 0.2,-0.22 0.2,-0.334C0.2,-0.449 0.283,-0.534 0.392,-0.534C0.501,-0.534 0.584,-0.449 0.584,-0.334C0.584,-0.22 0.501,-0.136 0.392,-0.136Z" style="fill:rgb(179,43,229);fill-rule:nonzero;"/>
            </g>
            <g transform="matrix(192,0,0,192,1057.49,452.221)">
                <path d="M0.374,-0.517C0.308,-0.517 0.256,-0.496 0.218,-0.459L0.218,-0.502L0.058,-0.502L0.058,0.24L0.218,0.24L0.218,-0.043C0.256,-0.006 0.308,0.015 0.374,0.015C0.507,0.015 0.619,-0.092 0.619,-0.251C0.619,-0.409 0.507,-0.517 0.374,-0.517ZM0.341,-0.121C0.276,-0.121 0.218,-0.173 0.218,-0.251C0.218,-0.328 0.276,-0.381 0.341,-0.381C0.411,-0.381 0.462,-0.328 0.462,-0.251C0.462,-0.173 0.411,-0.121 0.341,-0.121Z" style="fill:rgb(179,43,229);fill-rule:nonzero;"/>
            </g>
            <g transform="matrix(192,0,0,192,1181.13,452.221)">
                <path d="M0.55,-0.251C0.547,-0.415 0.433,-0.517 0.291,-0.517C0.145,-0.517 0.025,-0.409 0.025,-0.251C0.025,-0.092 0.145,0.015 0.29,0.015C0.405,0.015 0.496,-0.036 0.539,-0.142L0.397,-0.171C0.37,-0.122 0.327,-0.113 0.29,-0.113C0.236,-0.113 0.195,-0.15 0.182,-0.21L0.55,-0.21L0.55,-0.251ZM0.291,-0.387C0.337,-0.387 0.377,-0.362 0.392,-0.308L0.185,-0.308C0.2,-0.359 0.246,-0.387 0.291,-0.387Z" style="fill:rgb(179,43,229);fill-rule:nonzero;"/>
            </g>
            <g transform="matrix(192,0,0,192,1291.53,452.221)">
                <path d="M0.372,-0.517C0.309,-0.517 0.256,-0.494 0.218,-0.454L0.218,-0.502L0.058,-0.502L0.058,-0L0.218,-0L0.218,-0.233C0.218,-0.33 0.259,-0.373 0.322,-0.373C0.373,-0.373 0.408,-0.333 0.408,-0.274L0.408,-0L0.567,-0L0.567,-0.308C0.567,-0.434 0.489,-0.517 0.372,-0.517Z" style="fill:rgb(179,43,229);fill-rule:nonzero;"/>
            </g>
            <g transform="matrix(192,0,0,192,1410.19,452.221)">
                <path d="M0.729,-0L0.449,-0.67L0.28,-0.67L0,-0L0.177,-0L0.224,-0.122L0.506,-0.122L0.553,-0L0.729,-0ZM0.451,-0.264L0.28,-0.264L0.365,-0.484L0.451,-0.264Z" style="fill:rgb(179,43,229);fill-rule:nonzero;"/>
            </g>
            <g transform="matrix(192,0,0,192,1550.16,452.221)">
                <path d="M0.374,-0.517C0.308,-0.517 0.256,-0.496 0.218,-0.459L0.218,-0.502L0.058,-0.502L0.058,0.24L0.218,0.24L0.218,-0.043C0.256,-0.006 0.308,0.015 0.374,0.015C0.507,0.015 0.619,-0.092 0.619,-0.251C0.619,-0.409 0.507,-0.517 0.374,-0.517ZM0.341,-0.121C0.276,-0.121 0.218,-0.173 0.218,-0.251C0.218,-0.328 0.276,-0.381 0.341,-0.381C0.411,-0.381 0.462,-0.328 0.462,-0.251C0.462,-0.173 0.411,-0.121 0.341,-0.121Z" style="fill:rgb(179,43,229);fill-rule:nonzero;"/>
            </g>
            <g transform="matrix(192,0,0,192,1673.81,452.221)">
                <path d="M0.146,-0.741C0.092,-0.741 0.054,-0.699 0.054,-0.65C0.054,-0.599 0.092,-0.561 0.146,-0.561C0.2,-0.561 0.239,-0.599 0.239,-0.65C0.239,-0.699 0.2,-0.741 0.146,-0.741ZM0.226,-0L0.226,-0.502L0.066,-0.502L0.066,-0L0.226,-0Z" style="fill:rgb(179,43,229);fill-rule:nonzero;"/>
            </g>
            <g transform="matrix(192,0,0,192,1729.87,452.221)">
                <path d="M0.481,-0L0.676,-0L0.466,-0.336L0.674,-0.67L0.479,-0.67L0.341,-0.444L0.204,-0.67L0.009,-0.67L0.217,-0.336L0.007,-0L0.202,-0L0.341,-0.228L0.481,-0Z" style="fill:rgb(179,43,229);fill-rule:nonzero;"/>
            </g>
        </g>
    </g>
</svg>
